<svg xmlns="http://www.w3.org/2000/svg" fill="none" viewBox="0 0 128 128">
    <path fill="#3498db" d="M50.4 78.5a75.1 75.1 0 0 0-28.5 6.9l24.2-65.7c.7-2 3.1-3.1 5.1-2.3l46.3 17.5c2 .8 3.1 3 2.3 5.1L89.2 64.8c2.2-1.3 4.6-2.2 7-2.7L107 26.5c1.8-4.7-.7-9.9-5.4-11.7L55.3 0c-4.7-1.8-9.9.7-11.7 5.4L20.3 78.5z"/>
    <path fill="#2c3e50" d="M56.9 83.1a27 27 0 1 1 51.9 15.4L83.2 128l-7.9-11.1-7.9 11.1-25.6-29.4a27 27 0 0 1 15.1-15.5zm24.2 14.6c7.3 0 13.3-6 13.3-13.3 0-7.3-6-13.3-13.3-13.3-7.3 0-13.3 6-13.3 13.3 0 7.3 6 13.3 13.3 13.3z"/>
</svg>
